<svg width="241" height="241" viewBox="0 0 241 241" fill="none" xmlns="http://www.w3.org/2000/svg">
<circle cx="120.461" cy="120.461" r="120.461" fill="#16191E"/>
<path d="M143.499 61.025C143.801 61.0252 144.1 60.9658 144.379 60.8503C144.658 60.7348 144.912 60.5654 145.125 60.3519C145.339 60.1383 145.508 59.8847 145.624 59.6056C145.739 59.3265 145.799 59.0274 145.799 58.7253V54.1259C145.799 53.516 145.556 52.931 145.125 52.4997C144.694 52.0685 144.109 51.8262 143.499 51.8262C142.889 51.8262 142.304 52.0685 141.873 52.4997C141.441 52.931 141.199 53.516 141.199 54.1259V58.7253C141.199 59.0274 141.258 59.3265 141.374 59.6056C141.489 59.8847 141.659 60.1383 141.872 60.3519C142.086 60.5654 142.339 60.7348 142.619 60.8503C142.898 60.9658 143.197 61.0252 143.499 61.025ZM130.374 60.3513C130.807 60.7754 131.39 61.0115 131.995 61.0084C132.601 61.0054 133.181 60.7634 133.61 60.335C134.038 59.9066 134.28 59.3264 134.283 58.7206C134.286 58.1148 134.05 57.5322 133.626 57.0995L129.027 52.5001C128.594 52.076 128.011 51.8399 127.406 51.8429C126.8 51.846 126.22 52.088 125.791 52.5164C125.363 52.9448 125.121 53.525 125.118 54.1308C125.115 54.7366 125.351 55.3192 125.775 55.7519L130.374 60.3513ZM154.997 61.025C155.299 61.0254 155.599 60.9661 155.878 60.8504C156.157 60.7348 156.41 60.5652 156.623 60.3513L161.223 55.7519C161.647 55.3192 161.883 54.7366 161.88 54.1308C161.877 53.525 161.635 52.9448 161.206 52.5164C160.778 52.088 160.198 51.846 159.592 51.8429C158.986 51.8399 158.404 52.076 157.971 52.5001L153.372 57.0995C153.05 57.4211 152.831 57.8308 152.743 58.2769C152.654 58.7229 152.699 59.1852 152.873 59.6053C153.047 60.0254 153.342 60.3845 153.72 60.6372C154.098 60.8899 154.543 61.0249 154.997 61.025ZM92.4964 87.2966C92.5244 86.9957 92.4929 86.6923 92.4036 86.4037C92.3144 86.115 92.1692 85.8468 91.9762 85.6142C91.7833 85.3817 91.5465 85.1894 91.2793 85.0484C91.0121 84.9074 90.7197 84.8204 90.4189 84.7924C90.118 84.7644 89.8146 84.7959 89.526 84.8851C89.2373 84.9744 88.9691 85.1196 88.7365 85.3125C88.504 85.5054 88.3118 85.7422 88.1707 86.0095C88.0297 86.2767 87.9427 86.569 87.9147 86.8699C87.3261 90.5069 85.8204 93.9339 83.5399 96.8276C83.1914 97.3286 83.0563 97.9474 83.1641 98.548C83.2719 99.1486 83.6139 99.6817 84.1148 100.03C84.6157 100.379 85.2346 100.514 85.8352 100.406C86.4357 100.298 86.9689 99.9562 87.3173 99.4552C90.028 95.8961 91.8081 91.7171 92.4964 87.2966Z" fill="#CC9933"/>
<path d="M153.955 99.2105L166.036 83.1012C166.056 83.0736 166.052 83.0363 166.071 83.008C166.093 82.9765 166.132 82.9634 166.152 82.9305C166.258 82.7166 166.329 82.4872 166.363 82.2508C166.472 82.002 166.52 81.7301 166.501 81.4587C166.482 81.1874 166.397 80.9247 166.253 80.6937L159.354 66.8954C159.154 66.5287 158.855 66.2252 158.492 66.0187C158.128 65.8123 157.715 65.7111 157.297 65.7265V65.6243H129.7V65.7265C129.283 65.7111 128.869 65.8123 128.506 66.0188C128.143 66.2252 127.844 66.5288 127.643 66.8954L120.744 80.6937C120.601 80.9248 120.516 81.1874 120.497 81.4588C120.478 81.7301 120.525 82.002 120.635 82.2509C120.668 82.4872 120.739 82.7167 120.845 82.9305C120.865 82.9634 120.904 82.9765 120.926 83.008C120.945 83.0364 120.941 83.0735 120.962 83.1012L133.081 99.2615C128.63 100.41 124.405 102.301 120.583 104.854C115.823 101.647 110.446 99.469 104.796 98.4604C104.196 98.3544 103.579 98.4911 103.079 98.8403C102.58 99.1894 102.239 99.7226 102.133 100.323C102.026 100.923 102.162 101.54 102.511 102.04C102.86 102.54 103.393 102.881 103.992 102.988C109.507 103.969 114.723 106.201 119.239 109.514C119.27 109.535 119.295 109.564 119.327 109.583C121.581 111.241 123.639 113.15 125.459 115.275L125.46 115.277L125.482 115.299C130.912 121.65 134.016 129.662 134.281 138.014C134.546 146.366 131.957 154.558 126.941 161.241C125.683 160.295 124.507 159.243 123.427 158.097C126.025 154.591 127.877 150.589 128.868 146.339C129.858 142.089 129.966 137.68 129.186 133.387C128.405 129.093 126.752 125.005 124.329 121.375C121.906 117.746 118.764 114.652 115.097 112.285L115.082 112.266C115.032 112.224 114.97 112.213 114.917 112.175C108.406 107.893 100.533 106.19 92.8344 107.398C105.819 90.6707 101.194 79.9518 99.2718 76.8649C97.7698 74.3171 95.4683 72.3367 92.725 71.2316C89.9817 70.1265 86.9501 69.9585 84.1015 70.7537C82.2108 71.4264 80.5109 72.5465 79.1468 74.0185C77.7828 75.4905 76.7951 77.2706 76.268 79.207C74.6946 77.9616 72.8433 77.1151 70.872 76.7397C68.9007 76.3643 66.8679 76.4711 64.9469 77.051C62.1803 78.0985 59.838 80.0318 58.285 82.5496C56.732 85.0674 56.0556 88.0282 56.3611 90.9706C56.6483 94.6414 59.3301 106.267 80.4525 111.955C73.2986 116.378 68.1641 123.429 66.1515 131.595C64.1389 139.762 65.4087 148.392 69.6883 155.632C73.9678 162.872 80.9159 168.146 89.0406 170.32C97.1652 172.495 105.819 171.397 113.143 167.262C114.215 168.429 115.354 169.534 116.553 170.571C110.827 174.109 104.234 175.992 97.5045 176.011C90.424 176.011 83.4938 173.968 77.5454 170.127C71.597 166.287 66.8831 160.812 63.9692 154.358C61.0554 147.905 60.0653 140.748 61.1179 133.747C62.1705 126.745 65.2209 120.195 69.9033 114.884C70.3071 114.427 70.5127 113.828 70.4748 113.219C70.4369 112.61 70.1586 112.041 69.7012 111.637C69.2437 111.233 68.6446 111.027 68.0356 111.065C67.4266 111.103 66.8576 111.381 66.4537 111.839C59.7736 119.362 56.0669 129.063 56.0287 139.124C55.9904 149.184 59.6231 158.913 66.2457 166.487C72.8684 174.06 82.0262 178.958 92.002 180.262C101.978 181.566 112.087 179.186 120.433 173.569C125.429 176.929 131.097 179.159 137.043 180.102C142.989 181.045 149.069 180.679 154.859 179.03C160.649 177.38 166.01 174.487 170.566 170.551C175.122 166.616 178.764 161.734 181.238 156.245C183.713 150.757 184.959 144.795 184.891 138.775C184.823 132.755 183.441 126.822 180.843 121.391C178.245 115.96 174.493 111.162 169.849 107.331C165.205 103.5 159.781 100.729 153.955 99.2106L153.955 99.2105ZM60.9471 90.6112C60.7149 88.6948 61.1217 86.7553 62.1044 85.0937C63.0871 83.4321 64.5907 82.1413 66.382 81.4216C67.04 81.2054 67.7285 81.0963 68.4212 81.0982C70.6929 81.2054 72.8525 82.1168 74.5141 83.6696C74.984 84.0659 75.5471 84.3357 76.1504 84.4536C76.7536 84.5715 77.3769 84.5335 77.9614 84.3433C78.5452 84.1522 79.0698 83.8137 79.4845 83.3604C79.8992 82.9072 80.1899 82.3546 80.3285 81.7562C80.5433 80.2924 81.1371 78.9102 82.0511 77.7468C82.9651 76.5834 84.1674 75.6793 85.5388 75.1241C87.4081 74.6437 89.3836 74.7921 91.1602 75.5463C92.9368 76.3004 94.4158 77.6184 95.3687 79.2968C97.0149 81.9424 101.107 91.7678 85.9116 108.542C63.7207 104.053 61.1896 93.7194 60.9471 90.6112ZM148.974 98.1886C148.722 98.153 148.459 98.1398 148.206 98.108L148.179 98.1041L151.691 84.022H159.597L148.974 98.1886ZM143.442 97.8214C143.443 97.7423 143.439 97.6632 143.431 97.5845L140.049 84.022H146.948L143.566 97.5845C143.558 97.6632 143.555 97.7423 143.556 97.8214L143.499 97.8203L143.442 97.8214ZM150.398 76.5794L147.22 70.2237H153.576L150.398 76.5794ZM146.677 79.4226H140.321L143.499 73.0669L146.677 79.4226ZM136.6 76.5794L133.422 70.2237H139.777L136.6 76.5794ZM160.475 79.4226H154.119L157.297 73.0669L160.475 79.4226ZM129.7 73.0669L132.878 79.4226H126.523L129.7 73.0669ZM135.307 84.022L138.819 98.1049C138.556 98.1375 138.285 98.1515 138.023 98.1886L127.401 84.022H135.307ZM138.899 139.215C138.904 130.413 136.097 121.839 130.888 114.744C135.093 112.571 139.787 111.518 144.517 111.685C149.247 111.851 153.855 113.233 157.896 115.697C161.938 118.16 165.277 121.623 167.593 125.751C169.908 129.879 171.122 134.534 171.117 139.267C171.113 144 169.889 148.653 167.566 152.776C165.242 156.9 161.896 160.355 157.849 162.811C153.803 165.267 149.193 166.639 144.462 166.797C139.732 166.954 135.04 165.891 130.839 163.71C136.064 156.61 138.887 148.03 138.899 139.215ZM120.449 154.351C117.466 149.863 115.884 144.589 115.902 139.199C115.921 133.81 117.54 128.547 120.554 124.079C123.537 128.568 125.12 133.842 125.101 139.231C125.082 144.621 123.463 149.883 120.449 154.351ZM97.5045 166.812C93.3216 166.82 89.1917 165.877 85.4269 164.054C81.6621 162.231 78.3609 159.576 75.7728 156.29C73.1847 153.004 71.3774 149.173 70.4876 145.086C69.5977 140.999 69.6486 136.763 70.6364 132.698C71.6241 128.634 73.5229 124.847 76.1892 121.624C78.8555 118.401 82.2195 115.827 86.027 114.095C89.8345 112.363 93.9859 111.52 98.1673 111.628C102.349 111.736 106.451 112.794 110.164 114.72C104.928 121.804 102.103 130.381 102.104 139.19C102.105 147.998 104.931 156.575 110.167 163.658C106.262 165.713 101.918 166.795 97.5045 166.812ZM143.499 176.011C136.668 176.018 129.971 174.121 124.158 170.535C118.345 166.948 113.647 161.812 110.59 155.704C107.533 149.595 106.238 142.756 106.852 135.953C107.465 129.15 109.962 122.653 114.062 117.19C115.32 118.136 116.496 119.187 117.576 120.333C112.9 126.773 110.768 134.714 111.589 142.63C112.411 150.546 116.128 157.879 122.027 163.222C127.926 168.565 135.59 171.54 143.549 171.576C151.508 171.612 159.199 168.707 165.146 163.418C171.093 158.129 174.877 150.83 175.77 142.921C176.664 135.013 174.604 127.053 169.987 120.571C165.37 114.089 158.521 109.541 150.755 107.8C142.989 106.06 134.853 107.25 127.911 111.141C126.842 109.971 125.707 108.862 124.511 107.822C128.463 105.382 132.847 103.724 137.425 102.937C137.754 102.882 138.089 102.864 138.418 102.816C140.1 102.568 141.798 102.435 143.499 102.42C144.552 102.42 145.587 102.491 146.618 102.578C147.313 102.645 148.004 102.727 148.687 102.829C157.901 104.136 166.277 108.889 172.125 116.128C177.974 123.367 180.86 132.555 180.202 141.838C179.544 151.121 175.391 159.81 168.579 166.151C161.768 172.493 152.805 176.016 143.499 176.011Z" fill="#CC9933"/>
</svg>
