<svg width="241" height="241" viewBox="0 0 241 241" fill="none" xmlns="http://www.w3.org/2000/svg">
<circle cx="120.461" cy="120.461" r="120.461" fill="#16191E"/>
<path d="M155.373 150.35C150.251 148.566 144.711 148.452 139.589 146.669C138.033 146.138 134.96 145.493 134.315 143.709C133.708 141.964 133.708 139.915 133.594 138.094C133.518 136.652 133.48 135.21 133.48 133.768C133.48 132.82 135.909 130.809 136.44 129.936C138.489 126.521 138.678 121.93 139.058 118.06C142.359 118.971 142.776 112.862 143.346 111.002C143.763 109.712 146.305 100.834 142.359 102.048C143.308 100.378 143.687 98.3294 143.953 96.4702C144.711 91.6135 145.015 86.3015 143.535 81.5586C140.462 71.6933 131.014 66.1536 121.035 65.8501C110.904 65.5086 100.735 70.3653 96.941 80.1926C95.1197 84.9734 95.2715 90.1717 95.8786 95.1802C96.1442 97.4568 96.5236 99.9989 97.6619 102.048C93.9814 100.948 95.9545 108.764 96.3718 110.13C96.9789 112.065 97.5101 119.008 100.963 118.06C101.267 121.133 101.608 124.283 102.443 127.28C103.012 129.291 104.188 130.999 105.554 132.554C106.237 133.313 106.579 133.389 106.541 134.375C106.503 137.335 106.579 140.522 105.82 143.406C105.061 146.29 98.7243 147.504 96.1821 148.035C89.3524 149.439 83.0538 150.084 77.3623 154.334C70.7223 159.228 67.2694 166.855 67.2694 175.089H172.751C172.751 163.895 165.998 154.03 155.373 150.35Z" fill="#CC9933"/>
<path d="M77.2485 145.682C75.9584 146.327 74.4027 147.124 77.552 145.531L77.8556 145.379C80.4357 144.165 83.2055 143.861 85.9754 143.596C87.0378 143.482 87.5311 142.761 86.7343 141.736C85.2165 139.801 79.9804 139.422 77.7797 138.549C76.4137 138.018 76.0343 137.525 75.9205 136.007C75.8825 135.324 75.5031 132.289 76.0343 131.795C76.4137 131.416 78.8041 131.568 79.3353 131.492C81.4981 131.226 83.6988 130.771 85.7477 129.974C86.6204 129.632 87.4552 129.215 88.214 128.684C89.1247 128.001 87.5311 126.331 87.1137 125.421C85.8236 122.575 85.2545 119.464 85.0648 116.352C84.6853 110.244 85.6339 104.097 84.4956 98.0258C82.7882 88.7298 75.6169 84.0627 66.4726 84.0627C60.8191 84.0627 55.2414 85.9978 52.0921 90.9305C48.6014 96.3563 48.7911 103.11 48.9808 109.295C49.0946 112.824 49.2464 116.39 48.7531 119.919C48.5255 121.437 48.184 122.917 47.6528 124.358C47.2354 125.459 45.1106 128.191 45.9453 128.76C49.0946 130.998 54.4067 131.757 58.201 131.454C58.3148 133.313 58.6563 135.703 57.9733 137.449C56.9109 140.181 48.9808 140.902 46.5904 141.698C39.9503 143.899 35.0177 149.287 35.0177 156.876H65.1825C65.6758 156.876 67.573 153.347 68.1042 152.778C70.6843 149.932 73.8336 147.466 77.2485 145.682Z" fill="#CC9933"/>
<path d="M193.355 141.661C190.281 140.674 184.362 140.371 182.161 137.715C181.061 136.387 181.668 133.01 181.782 131.416C183.451 131.568 185.273 131.302 186.98 131.075C188.536 130.847 190.054 130.543 191.533 130.012C192.216 129.747 192.899 129.481 193.544 129.102C195.024 128.229 194.341 128.077 193.582 126.787C189.446 119.843 191.306 111.041 191.116 103.414C190.964 97.0775 189.295 90.1339 183.527 86.5673C178.329 83.3421 170.627 83.2283 165.049 85.5049C148.961 91.9552 158.447 113.279 152.945 125.497C151.997 127.546 150.631 128.267 153.021 129.481C154.349 130.164 155.791 130.619 157.233 130.961C159.433 131.492 161.71 131.796 163.987 131.871C164.366 131.871 164.1 136.652 163.987 137.146C163.569 139.005 159.509 139.536 157.992 139.953C156.436 140.371 153.856 140.485 153.097 142.116C151.959 144.544 156.853 143.937 158.067 144.165C161.976 144.886 165.428 147.049 168.464 149.515C170.74 151.374 173.814 153.878 174.649 156.914H205.079C205.003 149.287 200.033 143.861 193.355 141.661Z" fill="#CC9933"/>
</svg>
