<svg width="70" height="73" viewBox="0 0 70 73" fill="none" xmlns="http://www.w3.org/2000/svg">
<path d="M60.196 16.7645C60.9819 16.7279 61.721 16.3805 62.2507 15.7989C62.7805 15.2173 63.0575 14.4491 63.0208 13.6632C62.9842 12.8774 62.6368 12.1383 62.0552 11.6085C61.4736 11.0787 60.7054 10.8017 59.9195 10.8384L58.8085 10.8895L58.7575 9.77847C58.7393 9.38936 58.6447 9.00763 58.479 8.65508C58.3133 8.30254 58.0798 7.98607 57.7918 7.72377C57.5039 7.46146 57.167 7.25844 56.8006 7.12631C56.4342 6.99417 56.0453 6.93551 55.6562 6.95366C55.267 6.97182 54.8853 7.06644 54.5328 7.23212C54.1802 7.3978 53.8638 7.6313 53.6014 7.91928C53.3391 8.20727 53.1361 8.5441 53.004 8.91054C52.8719 9.27698 52.8132 9.66586 52.8313 10.055L53.1589 17.0921L60.196 16.7645ZM61.5673 25.5005L61.5275 26.3574L60.6706 26.3176C60.3696 26.3019 60.0684 26.3458 59.7844 26.4469C59.5005 26.548 59.2393 26.7042 59.0159 26.9066C58.7925 27.109 58.6114 27.3536 58.4829 27.6262C58.3544 27.8989 58.281 28.1942 58.2671 28.4953C58.2531 28.7964 58.2988 29.0973 58.4016 29.3807C58.5043 29.6641 58.6621 29.9243 58.8658 30.1465C59.0695 30.3687 59.3151 30.5484 59.5885 30.6753C59.8619 30.8023 60.1577 30.8739 60.4588 30.8861L65.883 31.1377L66.1346 25.7135C66.1486 25.4136 66.1034 25.1139 66.0015 24.8315C65.8997 24.5491 65.7432 24.2895 65.541 24.0675C65.3389 23.8456 65.095 23.6656 64.8233 23.5379C64.5516 23.4103 64.2574 23.3373 63.9575 23.3234C63.6576 23.3094 63.3579 23.3546 63.0754 23.4564C62.793 23.5583 62.5334 23.7148 62.3115 23.9169C62.0896 24.1191 61.9096 24.363 61.7819 24.6347C61.6542 24.9064 61.5813 25.2006 61.5673 25.5005Z" fill="#CC9933"/>
<path d="M50.5696 3.11377C51.4294 3.11377 52.1265 2.41673 52.1265 1.55688C52.1265 0.697041 51.4294 0 50.5696 0C49.7097 0 49.0127 0.697041 49.0127 1.55688C49.0127 2.41673 49.7097 3.11377 50.5696 3.11377Z" fill="#CC9933"/>
<path d="M66.1379 7.75085C66.9978 7.75085 67.6948 7.05381 67.6948 6.19397C67.6948 5.33413 66.9978 4.63708 66.1379 4.63708C65.2781 4.63708 64.5811 5.33413 64.5811 6.19397C64.5811 7.05381 65.2781 7.75085 66.1379 7.75085Z" fill="#CC9933"/>
<path d="M52.1262 24.8765C52.9861 24.8765 53.6831 24.1795 53.6831 23.3196C53.6831 22.4598 52.9861 21.7628 52.1262 21.7628C51.2664 21.7628 50.5693 22.4598 50.5693 23.3196C50.5693 24.1795 51.2664 24.8765 52.1262 24.8765Z" fill="#CC9933"/>
<path d="M9.80482 16.7646L16.8419 17.0922L17.1695 10.0551C17.1913 9.27809 16.9073 8.52359 16.3785 7.95383C15.8498 7.38408 15.1186 7.04458 14.3421 7.00835C13.5657 6.97213 12.806 7.24206 12.2266 7.76011C11.6471 8.27816 11.294 9.00293 11.2434 9.77857L11.1923 10.8896L10.0813 10.8385C9.29547 10.8018 8.52724 11.0788 7.94563 11.6086C7.36402 12.1384 7.01667 12.8775 6.98001 13.6633C6.94334 14.4492 7.22036 15.2174 7.75011 15.799C8.27986 16.3806 9.01896 16.728 9.80482 16.7646ZM3.86499 25.7123L4.11659 31.1365L9.54077 30.8849C9.84195 30.8727 10.1377 30.8011 10.4111 30.6742C10.6845 30.5473 10.9302 30.3675 11.1338 30.1454C11.3375 29.9232 11.4953 29.6629 11.598 29.3795C11.7008 29.0962 11.7465 28.7953 11.7325 28.4942C11.7186 28.1931 11.6452 27.8977 11.5167 27.6251C11.3882 27.3524 11.2071 27.1079 10.9837 26.9055C10.7603 26.7031 10.4991 26.5468 10.2152 26.4457C9.9312 26.3447 9.63005 26.3007 9.32903 26.3164L8.47213 26.3563L8.43227 25.4994C8.42523 25.1946 8.35734 24.8944 8.23258 24.6162C8.10782 24.3381 7.92872 24.0877 7.7058 23.8798C7.48287 23.6719 7.22064 23.5107 6.9345 23.4056C6.64836 23.3005 6.3441 23.2537 6.03961 23.2679C5.73511 23.2821 5.43653 23.357 5.16141 23.4883C4.8863 23.6195 4.6402 23.8045 4.4376 24.0322C4.23499 24.26 4.07996 24.5259 3.98163 24.8145C3.88329 25.103 3.84364 25.4083 3.86499 25.7123Z" fill="#CC9933"/>
<path d="M19.4309 3.11377C20.2908 3.11377 20.9878 2.41673 20.9878 1.55688C20.9878 0.697041 20.2908 0 19.4309 0C18.5711 0 17.874 0.697041 17.874 1.55688C17.874 2.41673 18.5711 3.11377 19.4309 3.11377Z" fill="#CC9933"/>
<path d="M3.86255 7.75085C4.72239 7.75085 5.41943 7.05381 5.41943 6.19397C5.41943 5.33413 4.72239 4.63708 3.86255 4.63708C3.0027 4.63708 2.30566 5.33413 2.30566 6.19397C2.30566 7.05381 3.0027 7.75085 3.86255 7.75085Z" fill="#CC9933"/>
<path d="M17.8743 24.8765C18.7341 24.8765 19.4312 24.1795 19.4312 23.3196C19.4312 22.4598 18.7341 21.7628 17.8743 21.7628C17.0144 21.7628 16.3174 22.4598 16.3174 23.3196C16.3174 24.1795 17.0144 24.8765 17.8743 24.8765Z" fill="#CC9933"/>
<path d="M35 30.3592C38.0042 30.3592 40.4491 27.9143 40.4491 24.9102C40.4491 21.906 38.0042 19.4611 35 19.4611C31.9958 19.4611 29.5509 21.906 29.5509 24.9102C29.5509 27.9143 31.9958 30.3592 35 30.3592ZM35 21.0179C37.146 21.0179 38.8922 22.7641 38.8922 24.9102C38.8922 27.0562 37.146 28.8024 35 28.8024C32.854 28.8024 31.1078 27.0562 31.1078 24.9102C31.1078 22.7641 32.854 21.0179 35 21.0179ZM0 63.0538C0.398562 68.2712 4.77154 72.3951 10.0899 72.3951H59.9101C65.2285 72.3951 69.6014 68.2712 70 63.0538H0Z" fill="#CC9933"/>
<path d="M3.09375 61.497H9.32502C9.59654 52.6676 14.459 44.4971 22.155 40.0344C22.3332 39.9364 22.5427 39.9121 22.7387 39.9665C22.9346 40.021 23.1015 40.15 23.2035 40.326C23.3055 40.5019 23.3347 40.7108 23.2847 40.9079C23.2347 41.1051 23.1095 41.2748 22.9359 41.3808C15.7182 45.5645 11.1522 53.2194 10.8819 61.4958H66.9073C66.4926 44.2555 52.3399 30.3581 35.0012 30.3581C17.6624 30.3581 3.5085 44.2555 3.09375 61.497ZM34.9999 36.5869C38.3292 36.5869 41.57 37.2171 44.6339 38.4614C44.7306 38.4984 44.819 38.5543 44.8938 38.6259C44.9686 38.6974 45.0285 38.7832 45.0697 38.8782C45.111 38.9731 45.1329 39.0754 45.1342 39.1789C45.1354 39.2825 45.116 39.3852 45.0771 39.4812C45.0381 39.5771 44.9804 39.6643 44.9074 39.7377C44.8343 39.8111 44.7473 39.8691 44.6515 39.9085C44.5558 39.9478 44.4531 39.9677 44.3496 39.9668C44.246 39.966 44.1437 39.9445 44.0485 39.9037C41.1748 38.7363 38.1017 38.1385 34.9999 38.1438C34.7935 38.1438 34.5955 38.0617 34.4495 37.9158C34.3035 37.7698 34.2215 37.5718 34.2215 37.3653C34.2215 37.1589 34.3035 36.9609 34.4495 36.8149C34.5955 36.6689 34.7935 36.5869 34.9999 36.5869Z" fill="#CC9933"/>
</svg>
