<svg width="241" height="241" viewBox="0 0 241 241" fill="none" xmlns="http://www.w3.org/2000/svg">
<circle cx="120.461" cy="120.461" r="120.461" fill="#16191E"/>
<path d="M163.158 180.952C163.158 186.12 147.039 193.337 120.787 193.337C94.5364 193.337 78.4396 186.12 78.4396 180.952C78.4396 175.783 94.5364 168.566 120.787 168.566C147.039 168.566 163.158 175.783 163.158 180.952ZM98.9533 148.826L95.0828 149.532C94.5922 149.614 94.1419 149.854 93.8006 150.216C93.4594 150.578 93.246 151.041 93.1931 151.536L92.6466 155.429L90.7797 151.968C90.5242 151.502 90.1134 151.139 89.6186 150.944L92.4873 142.998L94.6047 140.721L94.081 144.614C93.997 145.113 94.0812 145.625 94.3203 146.07C94.5594 146.515 94.9398 146.868 95.4015 147.073L98.9533 148.826ZM131.534 94.2524L130.76 93.6832C130.354 93.3939 129.869 93.2384 129.371 93.2384C128.873 93.2384 128.387 93.3939 127.982 93.6832L125.341 95.5957L126.32 92.5448C126.49 92.0733 126.499 91.5588 126.347 91.0813C126.195 90.6038 125.889 90.1899 125.478 89.9038L122.837 87.9685H126.115C126.616 87.9717 127.105 87.8173 127.514 87.5272C127.923 87.2372 128.23 86.8261 128.392 86.352L128.528 85.9194L131.534 94.2524ZM107.377 118.568L108.675 125.581L103.53 120.663C103.172 120.31 102.708 120.085 102.21 120.024C101.712 119.962 101.207 120.067 100.775 120.321H100.638L105.305 107.298L105.784 109.78C105.861 110.275 106.099 110.73 106.461 111.076C106.823 111.422 107.289 111.638 107.787 111.692L114.8 112.626L108.584 116.018C108.126 116.246 107.757 116.621 107.538 117.084C107.319 117.546 107.263 118.069 107.377 118.568Z" fill="#CC9933"/>
<path d="M134.448 102.13L129.439 98.5097L122.29 103.632C121.893 103.92 121.414 104.072 120.924 104.065C120.547 104.088 120.171 104.016 119.828 103.857C119.486 103.698 119.188 103.457 118.962 103.154C118.736 102.851 118.589 102.497 118.534 102.124C118.479 101.75 118.518 101.369 118.647 101.014L121.334 92.704L114.253 87.5357C113.838 87.2528 113.527 86.8403 113.371 86.3625C113.214 85.8847 113.22 85.3686 113.388 84.8947C113.534 84.4107 113.837 83.9891 114.249 83.6964C114.662 83.4037 115.16 83.2566 115.665 83.2782H124.453L125.933 78.7246L123.064 70.7104C122.311 70.8303 121.55 70.8912 120.787 70.8926C120.025 70.8918 119.264 70.8309 118.511 70.7104L108.493 98.578L110.087 107.344L122.609 108.983C123.137 108.987 123.648 109.174 124.053 109.514C124.458 109.853 124.733 110.323 124.83 110.842C124.927 111.362 124.84 111.899 124.584 112.361C124.329 112.824 123.92 113.183 123.429 113.377L112.318 119.41L114.595 131.842C114.671 132.179 114.669 132.53 114.589 132.867C114.51 133.204 114.354 133.519 114.135 133.786C113.915 134.054 113.637 134.268 113.323 134.413C113.008 134.557 112.664 134.628 112.318 134.619C111.719 134.615 111.142 134.388 110.701 133.982L101.594 125.262L98.3158 127.038L96.4489 132.138C96.7859 131.84 97.2036 131.648 97.6494 131.587C98.0951 131.527 98.5488 131.599 98.9533 131.796C99.3983 131.992 99.7688 132.326 100.011 132.748C100.252 133.17 100.353 133.658 100.297 134.141L99.0672 143.544L107.491 147.802C107.92 147.998 108.277 148.322 108.514 148.73C108.75 149.138 108.854 149.609 108.812 150.078C108.753 150.572 108.534 151.033 108.189 151.391C107.843 151.748 107.391 151.983 106.899 152.059L97.61 153.79L96.3578 163.17C96.299 163.664 96.0803 164.124 95.7349 164.482C95.3896 164.84 94.9367 165.075 94.4453 165.151H94.0355C93.6097 165.16 93.1899 165.05 92.8236 164.832C92.4574 164.615 92.1594 164.299 91.9637 163.921L87.7061 156.066L82.4695 170.615C91.5766 166.061 106.467 163.785 120.765 163.785C135.063 163.785 150.021 166.061 159.128 170.615L134.448 102.13ZM143.123 152.219C143.336 152.665 143.398 153.169 143.299 153.653C143.2 154.138 142.947 154.577 142.576 154.905C142.22 155.253 141.761 155.474 141.268 155.536C140.774 155.597 140.274 155.496 139.844 155.247L133.765 151.809L128.62 156.544C128.185 156.94 127.614 157.152 127.026 157.136C126.603 157.177 126.177 157.098 125.796 156.909C125.355 156.671 125.004 156.295 124.798 155.838C124.592 155.381 124.543 154.869 124.658 154.382L126.047 147.551L119.968 144.113C119.442 143.943 118.997 143.588 118.714 143.113C118.431 142.638 118.33 142.077 118.43 141.534C118.531 140.991 118.825 140.502 119.259 140.16C119.692 139.818 120.236 139.645 120.787 139.674L127.618 138.9L129.007 132.069C129.095 131.576 129.344 131.126 129.714 130.788C130.085 130.45 130.556 130.245 131.056 130.202C131.549 130.138 132.049 130.236 132.481 130.483C132.913 130.73 133.252 131.111 133.446 131.568L136.361 137.921L143.555 137.101C144.03 137.062 144.505 137.173 144.913 137.418C145.322 137.663 145.643 138.03 145.832 138.467C146.045 138.913 146.107 139.417 146.008 139.902C145.91 140.386 145.656 140.826 145.285 141.154L140.14 145.889L143.123 152.219ZM130.077 56.9132C130.077 58.7505 129.532 60.5464 128.511 62.074C127.49 63.6016 126.04 64.7922 124.342 65.4953C122.645 66.1984 120.777 66.3824 118.975 66.0239C117.173 65.6655 115.518 64.7808 114.219 63.4817C112.92 62.1826 112.035 60.5274 111.677 58.7255C111.318 56.9235 111.502 55.0558 112.205 53.3584C112.908 51.661 114.099 50.2102 115.627 49.1895C117.154 48.1688 118.95 47.624 120.787 47.624C123.251 47.624 125.614 48.6027 127.356 50.3448C129.098 52.0868 130.077 54.4496 130.077 56.9132Z" fill="#CC9933"/>
<path d="M135.177 146.276L135.791 147.597L134.448 146.891C134.02 146.639 133.522 146.534 133.028 146.591C132.535 146.649 132.074 146.866 131.716 147.21L130.623 148.189L130.942 146.754C131.049 146.267 130.994 145.759 130.784 145.306C130.574 144.854 130.222 144.483 129.781 144.25L128.506 143.544L129.94 143.362C130.439 143.32 130.911 143.114 131.281 142.776C131.652 142.439 131.901 141.988 131.989 141.495L132.262 140.083L132.877 141.404C133.066 141.841 133.387 142.208 133.796 142.453C134.204 142.698 134.679 142.809 135.154 142.77L136.611 142.588L135.541 143.59C135.2 143.939 134.981 144.389 134.915 144.873C134.85 145.357 134.941 145.849 135.177 146.276Z" fill="#CC9933"/>
</svg>
