<svg width="62" height="62" viewBox="0 0 62 62" fill="none" xmlns="http://www.w3.org/2000/svg">
<path d="M31 4.42857C15.0571 4.42857 2.21429 17.2714 2.21429 33.2143C2.21429 49.1571 15.0571 62 31 62C46.9429 62 59.7857 49.1571 59.7857 33.2143C59.7857 17.2714 46.9429 4.42857 31 4.42857ZM31 57.7929C17.4929 57.7929 6.42143 46.7214 6.42143 33.2143C6.42143 19.7071 17.4929 8.63571 31 8.63571C44.5071 8.63571 55.5786 19.7071 55.5786 33.2143C55.5786 46.7214 44.5071 57.7929 31 57.7929ZM3.76429 12.6214L12.6214 3.76429C13.5071 2.87857 13.5071 1.55 12.6214 0.664286C11.7357 -0.221429 10.4071 -0.221429 9.52143 0.664286L0.664286 9.52143C-0.221429 10.4071 -0.221429 11.7357 0.664286 12.6214C1.10714 13.0643 1.55 13.2857 2.21429 13.2857C2.87857 13.2857 3.32143 13.0643 3.76429 12.6214ZM61.3357 9.52143L52.4786 0.664286C51.5929 -0.221429 50.2643 -0.221429 49.3786 0.664286C48.4929 1.55 48.4929 2.87857 49.3786 3.76429L58.2357 12.6214C58.6786 13.0643 59.1214 13.2857 59.7857 13.2857C60.45 13.2857 60.8929 13.0643 61.3357 12.6214C62.2214 11.7357 62.2214 10.4071 61.3357 9.52143Z" fill="#CC9933"/>
<path d="M48.4927 35.4286H48.2713C47.1641 35.2071 46.2784 34.3214 46.2784 33.2143C46.2784 32.1071 47.1641 31.2214 48.2713 31H50.9284C49.8213 21.7 42.5141 14.3928 33.2141 13.2857V15.9428C32.9927 17.05 32.107 17.9357 30.9999 17.9357C29.8927 17.9357 29.007 17.05 28.7856 15.9428V13.2857C19.4856 14.3928 12.1784 21.7 11.0713 31H13.7284C14.8356 31.2214 15.7213 32.1071 15.7213 33.2143C15.7213 34.3214 14.8356 35.2071 13.7284 35.4286H11.0713C12.1784 44.7286 19.4856 52.0357 28.7856 53.1429V50.4857C29.007 49.3786 29.8927 48.4929 30.9999 48.4929C32.107 48.4929 32.9927 49.3786 33.2141 50.4857V53.1429C42.5141 52.0357 49.8213 44.7286 50.9284 35.4286H48.4927C48.7141 35.4286 48.7141 35.4286 48.4927 35.4286ZM39.857 35.4286H30.9999C29.8927 35.4286 28.7856 34.3214 28.7856 33.2143V22.1428C28.7856 21.0357 29.8927 19.9286 30.9999 19.9286C32.107 19.9286 33.2141 21.0357 33.2141 22.1428V31H39.857C40.9641 31 42.0713 32.1071 42.0713 33.2143C42.0713 34.3214 40.9641 35.4286 39.857 35.4286Z" fill="#CC9933"/>
</svg>
