<svg width="62" height="62" viewBox="0 0 62 62" fill="none" xmlns="http://www.w3.org/2000/svg">
<path d="M30.9031 0.00221146C30.556 0.0187294 30.2187 0.122458 29.9223 0.303813C29.6259 0.485168 29.38 0.738299 29.2073 1.03982L24.9639 8.47262L17.5631 4.15263C17.2478 3.96777 16.8891 3.86982 16.5236 3.86876C16.158 3.8677 15.7987 3.96356 15.4823 4.14659C15.1659 4.32961 14.9037 4.59325 14.7224 4.91063C14.5411 5.22801 14.4472 5.58779 14.4502 5.9533L14.4987 14.5004L5.93508 14.4681C5.57093 14.4679 5.21319 14.5639 4.89806 14.7464C4.58293 14.9289 4.32159 15.1913 4.14048 15.5073C3.95937 15.8232 3.86491 16.1813 3.86667 16.5454C3.86843 16.9096 3.96634 17.2668 4.1505 17.5809L8.45449 24.9653L1.03757 29.2085C0.722238 29.3897 0.460268 29.6508 0.278097 29.9655C0.0959258 30.2803 0 30.6375 0 31.0011C0 31.3648 0.0959258 31.722 0.278097 32.0367C0.460268 32.3515 0.722238 32.6126 1.03757 32.7937L8.45449 37.037L4.1505 44.4214C3.96634 44.7355 3.86843 45.0927 3.86667 45.4568C3.86492 45.821 3.95937 46.1791 4.14048 46.495C4.32159 46.8109 4.58293 47.0734 4.89806 47.2559C5.21319 47.4383 5.57093 47.5344 5.93508 47.5342L14.4987 47.5059L14.4502 56.049C14.4472 56.4145 14.5411 56.7743 14.7224 57.0917C14.9037 57.409 15.1659 57.6727 15.4823 57.8557C15.7987 58.0387 16.158 58.1346 16.5236 58.1335C16.8891 58.1325 17.2478 58.0345 17.5631 57.8497L24.9639 53.5458L29.2073 60.9625C29.3885 61.2778 29.6496 61.5398 29.9644 61.7219C30.2791 61.9041 30.6363 62 31 62C31.3637 62 31.7209 61.9041 32.0356 61.7219C32.3504 61.5398 32.6115 61.2778 32.7927 60.9625L37.0199 53.5337L44.4207 57.8497C44.7349 58.0338 45.0921 58.1317 45.4562 58.1335C45.8204 58.1352 46.1785 58.0408 46.4945 57.8597C46.8104 57.6786 47.0728 57.4172 47.2553 57.1021C47.4378 56.787 47.5338 56.4293 47.5336 56.0651L47.5054 47.5059L56.0488 47.5342C56.4119 47.5355 56.769 47.4412 57.0841 47.2608C57.3992 47.0803 57.6613 46.82 57.8438 46.5061C58.0263 46.1921 58.123 45.8357 58.124 45.4725C58.125 45.1094 58.0303 44.7524 57.8495 44.4375L53.5455 37.037L60.9624 32.7937C61.2778 32.6126 61.5397 32.3515 61.7219 32.0367C61.9041 31.722 62 31.3648 62 31.0011C62 30.6375 61.9041 30.2803 61.7219 29.9655C61.5397 29.6508 61.2778 29.3897 60.9624 29.2085L53.5455 24.9653L57.8495 17.5648C58.0303 17.2499 58.125 16.8929 58.124 16.5297C58.123 16.1666 58.0263 15.8101 57.8438 15.4962C57.6613 15.1823 57.3992 14.922 57.0841 14.7415C56.769 14.561 56.4119 14.4667 56.0488 14.4681L47.5054 14.5004L47.5336 5.9533C47.5367 5.58779 47.4428 5.22801 47.2614 4.91063C47.0801 4.59325 46.8179 4.32961 46.5015 4.14659C46.1851 3.96356 45.8258 3.8677 45.4603 3.86876C45.0948 3.86982 44.736 3.96777 44.4207 4.15263L37.0361 8.45647L32.7927 1.03982C32.6036 0.709796 32.3272 0.438317 31.9938 0.25525C31.6604 0.0721842 31.283 -0.0153735 30.9031 0.00221146ZM24.7984 16.5272C28.199 16.5272 30.9919 19.3402 30.9919 22.7407C30.9919 26.1411 28.199 28.934 24.7984 28.934C21.3978 28.934 18.6008 26.1411 18.6008 22.7407C18.6008 19.3402 21.3978 16.5272 24.7984 16.5272ZM41.2916 18.5741C41.7099 18.5584 42.1232 18.6699 42.4767 18.8941C42.8302 19.1183 43.1073 19.4445 43.2714 19.8295C43.4355 20.2146 43.4788 20.6404 43.3957 21.0506C43.3125 21.4609 43.1068 21.8362 42.8057 22.127L22.1255 42.8064C21.9346 43.0055 21.7059 43.1644 21.4527 43.2739C21.1995 43.3834 20.927 43.4412 20.6512 43.444C20.3754 43.4468 20.1018 43.3945 19.8465 43.2902C19.5911 43.1858 19.3592 43.0315 19.1643 42.8363C18.9694 42.6412 18.8154 42.4091 18.7114 42.1536C18.6074 41.8981 18.5555 41.6245 18.5587 41.3487C18.5618 41.0729 18.62 40.8005 18.7299 40.5475C18.8397 40.2944 18.999 40.0659 19.1983 39.8753L39.8745 19.1999C40.2479 18.8155 40.756 18.5912 41.2916 18.5741ZM37.2057 33.0683C40.6062 33.0683 43.3992 35.8652 43.3992 39.2656C43.3992 42.6661 40.6062 45.4751 37.2057 45.4751C33.8051 45.4751 30.9919 42.6661 30.9919 39.2656C30.9919 35.8652 33.8051 33.0683 37.2057 33.0683Z" fill="#CC9933"/>
</svg>
