<svg width="59" height="59" viewBox="0 0 59 59" fill="none" xmlns="http://www.w3.org/2000/svg">
<path d="M29.5 0C13.2086 0 0 13.2086 0 29.5C0 45.7914 13.2086 59 29.5 59C45.7914 59 59 45.7914 59 29.5C59 13.2086 45.7914 0 29.5 0ZM20.1485 16.6325H20.296C20.2665 16.6325 20.2499 16.6454 20.2222 16.6472C21.3728 16.6878 22.2301 17.5507 22.2301 18.7141C22.2301 19.9051 21.3377 20.7975 20.1467 20.7975H19.9992C19.5548 20.7975 19.1068 21.2437 19.1068 21.6899C19.1068 22.1361 19.5548 22.5823 20.001 22.5823H20.1485C21.3377 22.5823 22.2301 23.4728 22.2301 24.6638C22.2301 25.8531 21.3377 26.7473 20.1467 26.7473C19.9929 26.737 19.8481 26.6714 19.739 26.5626C19.6298 26.4538 19.5638 26.3092 19.553 26.1554C19.553 25.8568 19.8498 25.5562 20.1485 25.5562C20.5947 25.5562 21.0409 25.11 21.0409 24.6638C21.0409 24.2177 20.7422 23.7752 20.296 23.7752C20.0204 23.7817 19.7464 23.7323 19.4906 23.6298C19.2347 23.5273 19.0023 23.3739 18.8075 23.1789C18.6127 22.9839 18.4595 22.7514 18.3572 22.4954C18.255 22.2395 18.2057 21.9654 18.2126 21.6899C18.2126 20.6482 19.1049 19.6064 20.296 19.6064H20.4472C20.8934 19.6064 21.3359 19.1602 21.3359 18.7141C21.3359 18.2679 20.8934 17.8217 20.4472 17.8217C20.1485 17.9692 19.7023 17.6742 19.7023 17.3755C19.7023 16.957 19.8406 16.6823 20.2241 16.6472C20.1964 16.6472 20.1743 16.6325 20.1485 16.6325ZM25.9489 16.6325C25.9489 16.6325 26.1001 16.6325 26.2476 16.78C27.4387 16.78 28.3311 17.6723 28.3311 18.8634C28.3311 20.0526 27.4387 20.9468 26.2476 20.9468H25.9489C25.5028 20.9468 25.0566 21.3949 25.0566 21.8411C25.0566 22.2872 25.5028 22.7297 25.9489 22.7297H26.0964C27.2875 22.7297 28.1817 23.6258 28.1817 24.815C28.1817 26.0042 27.2875 26.8966 26.0983 26.8966C25.9439 26.8867 25.7984 26.821 25.6889 26.7118C25.5793 26.6026 25.5132 26.4573 25.5028 26.3029C25.5028 26.0042 25.7978 25.7074 26.0964 25.7074C26.5426 25.7074 26.9907 25.2612 26.9907 24.815C26.9907 24.3688 26.5426 23.9227 26.0964 23.9227C25.8211 23.9295 25.5472 23.8803 25.2914 23.778C25.0356 23.6757 24.8033 23.5224 24.6086 23.3275C24.4139 23.1327 24.2609 22.9002 24.1588 22.6444C24.0567 22.3885 24.0078 22.1146 24.0148 21.8392C24.0148 20.7993 25.0566 19.7558 26.0983 19.7558H26.3951C26.8413 19.7558 27.1418 19.3096 27.1418 18.8616C27.1418 18.4154 26.6938 17.9692 26.2476 17.9692C25.8014 17.9692 25.5028 17.6742 25.5028 17.3755C25.3552 17.0768 25.6503 16.6325 25.9489 16.6325ZM31.8987 16.6325C31.8987 16.6325 32.0481 16.6325 32.1974 16.78C33.3866 16.78 34.279 17.6723 34.279 18.8634C34.279 20.0526 33.3866 20.9468 32.1956 20.9468H31.8987C31.4525 20.9468 31.0082 21.3949 31.0082 21.8411C31.0082 22.2872 31.4507 22.7297 31.8987 22.7297H32.0499C33.2391 22.7297 34.1315 23.6258 34.1315 24.815C34.1315 26.0042 33.2391 26.8966 32.0481 26.8966C31.8943 26.8858 31.7497 26.8198 31.6409 26.7106C31.5321 26.6015 31.4665 26.4567 31.4562 26.3029C31.4562 26.0042 31.7512 25.7074 32.0499 25.7074C32.4961 25.7074 32.9423 25.2612 32.9423 24.815C32.9423 24.3688 32.4961 23.9227 32.0499 23.9227C30.8588 23.9227 29.9646 23.0303 29.9646 21.8392C29.9646 20.7993 31.0082 19.7558 32.0481 19.7558H32.1956C32.6436 19.7558 33.0898 19.3096 33.0898 18.8616C33.0898 18.4154 32.6436 17.9692 32.1974 17.9692C31.7512 17.9692 31.4562 17.6742 31.4562 17.3755C31.3069 17.0768 31.6 16.6325 31.8987 16.6325ZM43.8001 17.6742C44.8418 17.6742 45.5867 18.4172 46.0311 19.3096C46.4791 20.202 46.7741 21.2437 46.7741 22.1361C46.7741 23.7715 45.7361 25.1119 44.3975 25.4087C45.7361 29.5756 45.288 33.4438 45.5867 37.3101V37.4576C45.5867 38.6487 44.6925 39.3936 43.7983 39.3936C42.9077 39.3936 42.0172 38.6487 42.0172 37.4576V37.3101C42.3141 33.4438 42.0172 29.1276 43.2064 25.4087C41.866 25.1119 40.8262 23.7715 40.8262 22.1361C40.8262 21.2437 41.1248 20.2001 41.571 19.3096C42.0172 18.4172 42.7584 17.6742 43.8001 17.6742ZM12.709 28.2352H40.0831C40.5293 28.2352 40.8262 28.6795 40.6787 28.9782C39.4876 33.4401 36.3643 36.8658 32.4961 38.6505V41.772C32.4961 42.0707 32.1956 42.3675 31.8987 42.3675H21.1884C21.034 42.3571 20.8887 42.291 20.7795 42.1814C20.6703 42.0719 20.6046 41.9264 20.5947 41.772V38.6505C16.4278 36.8658 13.4557 33.2926 12.2646 28.9782C12.1171 28.6795 12.4121 28.2352 12.7071 28.2352H12.709Z" fill="#CC9933"/>
</svg>
